<?xml version="1.0" encoding="iso-8859-1"?>
<!-- Generator: Adobe Illustrator 19.0.0, SVG Export Plug-In . SVG Version: 6.00 Build 0)  -->
<svg version="1.1" id="Capa_1" xmlns="http://www.w3.org/2000/svg" xmlns:xlink="http://www.w3.org/1999/xlink" x="0px" y="0px"
	 viewBox="0 0 512 512" style="enable-background:new 0 0 512 512;" xml:space="preserve">
<g>
	<g>
		<path d="M462.503,271.887c-2.318-1.015-4.993-0.79-7.11,0.596c-2.118,1.386-3.394,3.746-3.394,6.276V340h-45v-61.241
			c0-2.53-1.276-4.891-3.394-6.276c-2.118-1.386-4.792-1.61-7.11-0.596c-27.756,12.131-46.432,38.358-49.142,68.113H112.5
			C50.467,340,0,390.468,0,452.5v52c0,4.143,3.358,7.5,7.5,7.5h452c4.142,0,7.5-3.357,7.5-7.5v-83.515
			c27.494-14.035,45-42.358,45-73.485C512,314.708,492.571,285.028,462.503,271.887z M105,497H15v-44.5
			c0-51.238,39.729-93.372,90-97.214V497z M180,355h107v23.74H180V355z M180,393.74h107v15H180V393.74z M120,355h45v53.74h-45V355z
			 M347,497H120v-73.26h45v50.76c0,4.143,3.358,7.5,7.5,7.5c4.142,0,7.5-3.357,7.5-7.5v-50.76h107v50.76c0,4.143,3.358,7.5,7.5,7.5
			c4.142,0,7.5-3.357,7.5-7.5v-50.76h45V497z M347,408.74h-45V355h45V408.74z M467,291.375
			c16.478,11.012,27.363,28.799,29.575,48.625H467V291.375z M392,497h-30V394.915c7.606,10.827,17.82,19.853,30,26.071V497z
			 M456.497,409.369c-2.731,1.193-4.497,3.892-4.497,6.872V497h-45v-80.759c0-2.98-1.765-5.679-4.497-6.872
			C377.898,398.615,362,374.33,362,347.5c0-22.789,11.468-43.74,30-56.125V347.5c0,4.143,3.358,7.5,7.5,7.5h97.083
			C493.929,378.782,478.785,399.628,456.497,409.369z"/>
	</g>
</g>
<g>
	<g>
		<path d="M368.5,125h-2.717c-2.271-40.486-22.798-76.173-53.467-98.942c-0.437-0.407-0.923-0.765-1.454-1.061
			C289.08,9.277,262.354,0,233.5,0c-28.487,0-55.634,8.904-78.505,25.751C123.207,49.166,103.468,85.841,101.22,125H98.5
			C77.822,125,61,141.822,61,162.5S77.822,200,98.5,200h2.744c4.116,69.382,61.858,124.57,132.256,124.57
			S361.64,269.382,365.756,200h2.744c20.678,0,37.5-16.822,37.5-37.5S389.178,125,368.5,125z M101,185h-2.5
			C86.093,185,76,174.906,76,162.5S86.093,140,98.5,140h2.5V185z M233.5,15c24.131,0,46.584,7.316,65.264,19.841
			C291.009,64.173,264.312,85,233.526,85c-30.666,0-57.522-20.912-65.26-50.232C187.591,21.824,210.028,15,233.5,15z M351,192.07
			c0,64.79-52.71,117.5-117.5,117.5S116,256.86,116,192.07V132.5c0-33.612,14.624-65.75,39.574-87.93
			c11.36,32.676,42.591,55.43,77.952,55.43c35.501,0,66.554-22.667,77.914-55.348C335.691,66.192,351,97.589,351,132.5V192.07z
			 M368.5,185H366v-45h2.5c12.407,0,22.5,10.094,22.5,22.5S380.907,185,368.5,185z"/>
	</g>
</g>
<g>
	<g>
		<path d="M283.5,185h-100c-4.142,0-7.5,3.357-7.5,7.5c0,31.706,25.794,57.5,57.5,57.5s57.5-25.794,57.5-57.5
			C291,188.357,287.642,185,283.5,185z M233.5,235c-20.875,0-38.285-15.13-41.837-35h83.674C271.784,219.87,254.375,235,233.5,235z"
			/>
	</g>
</g>
<g>
</g>
<g>
</g>
<g>
</g>
<g>
</g>
<g>
</g>
<g>
</g>
<g>
</g>
<g>
</g>
<g>
</g>
<g>
</g>
<g>
</g>
<g>
</g>
<g>
</g>
<g>
</g>
<g>
</g>
</svg>
