<?xml version="1.0" encoding="iso-8859-1"?>
<!-- Generator: Adobe Illustrator 19.0.0, SVG Export Plug-In . SVG Version: 6.00 Build 0)  -->
<svg version="1.1" id="Capa_1" xmlns="http://www.w3.org/2000/svg" xmlns:xlink="http://www.w3.org/1999/xlink" x="0px" y="0px"
	 viewBox="0 0 512.007 512.007" style="enable-background:new 0 0 512.007 512.007;" xml:space="preserve">
<g>
	<g>
		<path d="M391.265,72.315c-1.562-2.509-4.301-4.045-7.262-4.045h-256c-2.961,0-5.7,1.536-7.262,4.045
			c-1.553,2.517-1.698,5.658-0.375,8.303l17.067,34.133c1.451,2.893,4.403,4.719,7.637,4.719h221.867
			c3.234,0,6.187-1.826,7.637-4.719l17.067-34.133C392.964,77.973,392.818,74.832,391.265,72.315z M361.663,102.404H150.344
			l-8.533-17.067h228.386L361.663,102.404z"/>
	</g>
</g>
<g>
	<g>
		<path d="M503.47,460.804H8.537c-4.71,0-8.533,3.823-8.533,8.533v34.133c0,4.71,3.823,8.533,8.533,8.533H503.47
			c4.71,0,8.533-3.823,8.533-8.533v-34.133C512.003,464.626,508.181,460.804,503.47,460.804z M494.937,494.937H17.07V477.87h477.867
			V494.937z"/>
	</g>
</g>
<g>
	<g>
		<path d="M366.937,102.404H145.07c-4.71,0-8.533,3.823-8.533,8.533v358.4c0,4.71,3.823,8.533,8.533,8.533h221.867
			c4.71,0,8.533-3.823,8.533-8.533v-358.4C375.47,106.226,371.647,102.404,366.937,102.404z M358.404,460.804h-204.8V119.47h204.8
			V460.804z"/>
	</g>
</g>
<g>
	<g>
		<path d="M145.07,221.87H25.603c-4.71,0-8.533,3.823-8.533,8.533v238.933c0,4.71,3.823,8.533,8.533,8.533H145.07
			c4.71,0,8.533-3.823,8.533-8.533V230.404C153.604,225.693,149.781,221.87,145.07,221.87z M136.537,460.804h-102.4V238.937h102.4
			V460.804z"/>
	</g>
</g>
<g>
	<g>
		<path d="M486.404,221.87H366.937c-4.71,0-8.533,3.823-8.533,8.533v238.933c0,4.71,3.823,8.533,8.533,8.533h119.467
			c4.71,0,8.533-3.823,8.533-8.533V230.404C494.937,225.693,491.114,221.87,486.404,221.87z M477.87,460.804h-102.4V238.937h102.4
			V460.804z"/>
	</g>
</g>
<g>
	<g>
		<path d="M256.003,145.07c-37.64,0-68.267,30.626-68.267,68.267c0,37.641,30.626,68.267,68.267,68.267
			c37.641,0,68.267-30.626,68.267-68.267C324.27,175.696,293.644,145.07,256.003,145.07z M256.003,264.537
			c-28.228,0-51.2-22.963-51.2-51.2c0-28.237,22.972-51.2,51.2-51.2s51.2,22.963,51.2,51.2
			C307.203,241.574,284.232,264.537,256.003,264.537z"/>
	</g>
</g>
<g>
	<g>
		<path d="M256.003,179.204c-4.71,0-8.533,3.823-8.533,8.533v25.6c0,4.71,3.823,8.533,8.533,8.533c4.71,0,8.533-3.823,8.533-8.533
			v-25.6C264.537,183.026,260.714,179.204,256.003,179.204z"/>
	</g>
</g>
<g>
	<g>
		<path d="M273.07,204.803h-17.067c-4.71,0-8.533,3.823-8.533,8.533c0,4.71,3.823,8.533,8.533,8.533h17.067
			c4.71,0,8.533-3.823,8.533-8.533C281.604,208.626,277.781,204.803,273.07,204.803z"/>
	</g>
</g>
<g>
	<g>
		<path d="M256.003,0.004c-4.71,0-8.533,3.823-8.533,8.533v68.267c0,4.71,3.823,8.533,8.533,8.533c4.71,0,8.533-3.823,8.533-8.533
			V8.537C264.537,3.826,260.714,0.004,256.003,0.004z"/>
	</g>
</g>
<g>
	<g>
		<path d="M290.137,34.137c-4.71,0-8.533,3.823-8.533,8.533v34.133c0,4.71,3.823,8.533,8.533,8.533s8.533-3.823,8.533-8.533V42.67
			C298.67,37.96,294.847,34.137,290.137,34.137z"/>
	</g>
</g>
<g>
	<g>
		<path d="M221.87,34.137c-4.71,0-8.533,3.823-8.533,8.533v34.133c0,4.71,3.823,8.533,8.533,8.533c4.71,0,8.533-3.823,8.533-8.533
			V42.67C230.404,37.96,226.581,34.137,221.87,34.137z"/>
	</g>
</g>
<g>
	<g>
		<path d="M145.07,187.737H8.537c-2.961,0-5.7,1.536-7.262,4.045c-1.553,2.517-1.698,5.658-0.375,8.303l17.067,34.133
			c1.451,2.893,4.403,4.719,7.637,4.719H145.07c4.71,0,8.533-3.823,8.533-8.533V196.27
			C153.604,191.56,149.781,187.737,145.07,187.737z M136.537,221.87H30.877l-8.533-17.067h114.193V221.87z"/>
	</g>
</g>
<g>
	<g>
		<path d="M510.732,191.782c-1.562-2.509-4.301-4.045-7.262-4.045H366.937c-4.71,0-8.533,3.823-8.533,8.533v34.133
			c0,4.71,3.823,8.533,8.533,8.533h119.467c3.234,0,6.187-1.826,7.637-4.719l17.067-34.133
			C512.43,197.439,512.285,194.299,510.732,191.782z M481.13,221.87H375.47v-17.067h114.193L481.13,221.87z"/>
	</g>
</g>
<g>
	<g>
		<path d="M307.203,358.404h-102.4c-4.71,0-8.533,3.823-8.533,8.533v102.4c0,4.71,3.823,8.533,8.533,8.533h102.4
			c4.71,0,8.533-3.823,8.533-8.533v-102.4C315.737,362.226,311.914,358.404,307.203,358.404z M298.67,460.804h-85.333V375.47h85.333
			V460.804z"/>
	</g>
</g>
<g>
	<g>
		<path d="M324.27,332.803H187.737c-4.71,0-8.533,3.823-8.533,8.533v25.6c0,4.71,3.823,8.533,8.533,8.533H324.27
			c4.71,0,8.533-3.823,8.533-8.533v-25.6C332.803,336.626,328.981,332.803,324.27,332.803z M315.737,358.404H196.27v-8.533h119.467
			V358.404z"/>
	</g>
</g>
<g>
	<g>
		<path d="M256.003,298.67c-28.228,0-51.2,19.14-51.2,42.667c0,4.71,3.823,8.533,8.533,8.533h85.333c4.71,0,8.533-3.823,8.533-8.533
			C307.203,317.81,284.232,298.67,256.003,298.67z M223.824,332.803c4.693-9.933,17.357-17.067,32.188-17.067
			c14.831,0,27.486,7.134,32.179,17.067H223.824z"/>
	</g>
</g>
<g>
	<g>
		<path d="M273.07,409.604h-17.067c-4.71,0-8.533,3.823-8.533,8.533s3.823,8.533,8.533,8.533h17.067c4.71,0,8.533-3.823,8.533-8.533
			S277.781,409.604,273.07,409.604z"/>
	</g>
</g>
<g>
	<g>
		<path d="M110.937,256.004h-51.2c-4.71,0-8.533,3.823-8.533,8.533v170.667c0,4.71,3.823,8.533,8.533,8.533h51.2
			c4.71,0,8.533-3.823,8.533-8.533V264.537C119.47,259.826,115.647,256.004,110.937,256.004z M102.404,426.67H68.27v-153.6h34.133
			V426.67z"/>
	</g>
</g>
<g>
	<g>
		<path d="M110.937,298.67h-51.2c-4.71,0-8.533,3.823-8.533,8.533s3.823,8.533,8.533,8.533h51.2c4.71,0,8.533-3.823,8.533-8.533
			S115.647,298.67,110.937,298.67z"/>
	</g>
</g>
<g>
	<g>
		<path d="M110.937,384.004h-51.2c-4.71,0-8.533,3.823-8.533,8.533c0,4.71,3.823,8.533,8.533,8.533h51.2
			c4.71,0,8.533-3.823,8.533-8.533C119.47,387.827,115.647,384.004,110.937,384.004z"/>
	</g>
</g>
<g>
	<g>
		<path d="M110.937,341.337h-51.2c-4.71,0-8.533,3.823-8.533,8.533s3.823,8.533,8.533,8.533h51.2c4.71,0,8.533-3.823,8.533-8.533
			S115.647,341.337,110.937,341.337z"/>
	</g>
</g>
<g>
	<g>
		<path d="M452.27,256.004h-51.2c-4.71,0-8.533,3.823-8.533,8.533v170.667c0,4.71,3.823,8.533,8.533,8.533h51.2
			c4.71,0,8.533-3.823,8.533-8.533V264.537C460.804,259.826,456.981,256.004,452.27,256.004z M443.737,426.67h-34.133v-153.6h34.133
			V426.67z"/>
	</g>
</g>
<g>
	<g>
		<path d="M452.27,298.67h-51.2c-4.71,0-8.533,3.823-8.533,8.533s3.823,8.533,8.533,8.533h51.2c4.71,0,8.533-3.823,8.533-8.533
			S456.981,298.67,452.27,298.67z"/>
	</g>
</g>
<g>
	<g>
		<path d="M452.27,384.004h-51.2c-4.71,0-8.533,3.823-8.533,8.533c0,4.71,3.823,8.533,8.533,8.533h51.2
			c4.71,0,8.533-3.823,8.533-8.533C460.804,387.827,456.981,384.004,452.27,384.004z"/>
	</g>
</g>
<g>
	<g>
		<path d="M452.27,341.337h-51.2c-4.71,0-8.533,3.823-8.533,8.533s3.823,8.533,8.533,8.533h51.2c4.71,0,8.533-3.823,8.533-8.533
			S456.981,341.337,452.27,341.337z"/>
	</g>
</g>
<g>
</g>
<g>
</g>
<g>
</g>
<g>
</g>
<g>
</g>
<g>
</g>
<g>
</g>
<g>
</g>
<g>
</g>
<g>
</g>
<g>
</g>
<g>
</g>
<g>
</g>
<g>
</g>
<g>
</g>
</svg>
